<svg xmlns="http://www.w3.org/2000/svg" enable-background="new 0 0 64 64" viewBox="0 0 64 64"><path fill="#69e5aa" d="M27.63,64c-0.15,0-0.29,0-0.43-0.01c-8.37-0.4-14.94-12.71-14.94-28.03c0-15.31,6.57-27.62,14.96-28.03   c0.25-0.02,0.56-0.02,0.84,0c3.04,0.15,5.96,1.88,8.41,5.02c0.33,0.42,0.25,1.03-0.17,1.36c-0.42,0.33-1.03,0.25-1.36-0.17   c-2.09-2.68-4.51-4.16-6.99-4.27c-0.12-0.01-0.22-0.01-0.32-0.01c-0.1,0-0.21,0-0.31,0.01C20.08,10.22,14.2,21.92,14.2,35.96   c0,14.04,5.88,25.74,13.11,26.09c0.11,0.01,0.21,0.01,0.32,0.01c0.11,0,0.21,0,0.31-0.01C35.19,61.7,41.07,50,41.07,35.96   c0-0.93-0.03-1.87-0.08-2.87c-0.03-0.53,0.38-0.99,0.92-1.02c0.51-0.03,0.99,0.38,1.02,0.92c0.06,1.04,0.08,2.02,0.08,2.98   c0,15.31-6.57,27.62-14.96,28.03C27.92,64,27.78,64,27.63,64z"/><path fill="#69e5aa" d="M27.63,64c-0.15,0-0.29,0-0.43-0.01C12.23,63.79,0,51.22,0,35.96C0,20.7,12.23,8.13,27.25,7.93   c0.18-0.01,0.53-0.02,0.81,0c4.71,0.06,9.39,1.37,13.47,3.79c0.46,0.27,0.61,0.87,0.34,1.33c-0.27,0.46-0.87,0.61-1.33,0.34   c-3.79-2.25-8.13-3.47-12.55-3.53c-0.15-0.01-0.24-0.01-0.36-0.01c-0.1,0-0.21,0-0.31,0.01C13.31,10.06,1.94,21.76,1.94,35.96   c0,14.2,11.37,25.91,25.34,26.09c0.15,0.01,0.25,0.01,0.36,0.01c0.11,0,0.21,0,0.31-0.01c14.01-0.19,25.38-11.89,25.38-26.09   c0-4.23-0.97-8.27-2.87-12c-0.07-0.14-0.11-0.29-0.11-0.44c0-0.54,0.43-0.97,0.97-0.97c0.41,0,0.75,0.25,0.9,0.6   c2.02,3.99,3.05,8.3,3.05,12.81c0,15.25-12.22,27.82-27.24,28.03C27.92,64,27.78,64,27.63,64z"/><path fill="#498cca" d="M61.1 19.02c-.33 0-.64-.16-.83-.46-.28-.46-.14-1.05.32-1.34 1.09-.67 1.65-1.94 1.41-3.23-.23-1.28-1.18-2.26-2.43-2.5-.53-.1-.87-.61-.77-1.14.1-.53.6-.87 1.14-.77 2.04.4 3.6 2 3.97 4.06.38 2.08-.53 4.13-2.3 5.22C61.45 18.97 61.28 19.02 61.1 19.02zM40.61 34.29c-.39 0-.75-.23-.9-.61l-3.59-8.85c-.2-.5.04-1.06.53-1.26.49-.2 1.06.04 1.26.53l3.28 8.1 3.28-.7c.53-.11 1.04.22 1.15.75.11.52-.22 1.04-.75 1.15l-4.08.87C40.74 34.28 40.67 34.29 40.61 34.29z"/><path fill="#498cca" d="M44.68 33.43c-.44 0-.84-.3-.94-.75l-2.14-9.01c-.12-.52.2-1.04.72-1.17.52-.12 1.04.2 1.17.72l2.14 9.01c.12.52-.2 1.04-.72 1.17C44.83 33.42 44.76 33.43 44.68 33.43zM62.91 29.1c-.18 0-.36-.05-.52-.15-4.22-2.71-10.01-4.59-17.21-5.57-.53-.07-.9-.56-.83-1.09.07-.53.56-.9 1.09-.83 6.49.89 11.91 2.49 16.14 4.77L57.46 3.23c-3.17 3.65-7.68 7.09-13.44 10.24-.47.26-1.06.08-1.32-.39-.26-.47-.08-1.06.39-1.32 6.39-3.49 11.16-7.32 14.18-11.38.23-.31.62-.45 1-.37C58.64.11 58.93.42 59 .8l4.87 27.16c.07.38-.1.76-.42.98C63.29 29.05 63.1 29.1 62.91 29.1z"/><path fill="#498cca" d="M35.37,25.72c-0.52,0-1.02-0.16-1.45-0.46c-0.57-0.4-0.96-1-1.08-1.69l-1.36-7.59     c-0.25-1.41,0.68-2.77,2.07-3.03l8.41-1.55c0.67-0.13,1.36,0.02,1.92,0.41c0.57,0.4,0.96,0.99,1.08,1.68l1.36,7.59     c0.25,1.41-0.68,2.77-2.07,3.03l0,0l-8.41,1.56C35.68,25.71,35.52,25.72,35.37,25.72z M42.42,13.3c-0.04,0-0.08,0-0.11,0.01     l-8.41,1.55c-0.35,0.06-0.58,0.41-0.52,0.78l1.36,7.59c0.03,0.18,0.13,0.33,0.27,0.43c0.14,0.1,0.31,0.13,0.47,0.1l8.41-1.56     c0.35-0.07,0.58-0.41,0.52-0.78l-1.36-7.59c-0.03-0.18-0.13-0.33-0.28-0.43C42.67,13.34,42.55,13.3,42.42,13.3z M44.07,23.17     L44.07,23.17L44.07,23.17z"/><path fill="#69e5aa" d="M27.63,64c-0.54,0-0.97-0.43-0.97-0.97V8.89c0-0.54,0.43-0.97,0.97-0.97c0.54,0,0.97,0.43,0.97,0.97v54.14   C28.6,63.57,28.17,64,27.63,64z"/><path fill="#69e5aa" d="M54.29,36.93H0.97C0.44,36.93,0,36.5,0,35.96c0-0.54,0.43-0.97,0.97-0.97h53.32c0.54,0,0.97,0.43,0.97,0.97   C55.26,36.5,54.83,36.93,54.29,36.93z"/></svg>