<svg xmlns="http://www.w3.org/2000/svg" enable-background="new 0 0 512 512" viewBox="0 0 512 512"><path fill="#ffe177" fill-rule="evenodd" d="M504,236.624v53.215l-46.588,7.457c-5.327,26.322-15.691,50.813-30.031,72.44l27.686,38.239l-47.408,47.408     l-38.239-27.686c-21.624,14.343-46.119,24.702-72.44,30.031l-7.457,46.588h-67.045l-7.457-46.588     c-26.322-5.327-50.813-15.691-72.44-30.031l-38.239,27.686l-47.408-47.408l27.686-38.239     c-14.343-21.624-24.702-46.119-30.031-72.44L8,289.84v-53.215H504z" clip-rule="evenodd"/><path fill="#ffd064" fill-rule="evenodd" d="M504,236.624v53.215l-46.588,7.457c-5.327,26.322-15.691,50.813-30.031,72.44l27.686,38.239l-47.408,47.408     l-11.601-8.4l39.008-39.008l-27.686-38.239c14.341-21.627,24.704-46.118,30.031-72.44l46.588-7.457v-53.215H504L504,236.624z      M142.58,427.698l-38.239,27.686l-8.4-8.4l35.861-25.964C135.321,423.353,138.915,425.58,142.58,427.698L142.58,427.698z      M369.42,427.698c-21.624,14.343-46.119,24.702-72.44,30.031l-7.457,46.588h-20.001l7.457-46.588     c26.32-5.33,61.593-22.367,83.217-36.71L369.42,427.698z" clip-rule="evenodd"/><path fill="#eceff1" fill-rule="evenodd" d="M412.311,236.624c0.805,6.452,1.223,13.023,1.223,19.693c0,87.003-70.531,157.534-157.534,157.534     S98.466,343.321,98.466,256.317c0-6.67,0.418-13.241,1.223-19.693H412.311z" clip-rule="evenodd"/><path fill="#d1d1d6" fill-rule="evenodd" d="M119.69,236.624c-0.805,6.452-1.223,13.023-1.223,19.693c0,83.643,65.191,152.049,147.534,157.209     c-3.308,0.207-6.64,0.325-10,0.325c-87.004,0-157.534-70.531-157.534-157.534c0-6.67,0.418-13.241,1.223-19.693H119.69z" clip-rule="evenodd"/><path fill="#d1d1d6" fill-rule="evenodd" d="M145.573,7.683h187.078c1.681,0,3.127,0.599,4.315,1.788l34.265,34.264c1.188,1.188,1.787,2.635,1.787,4.315     v256.23c0,3.361-2.742,6.103-6.103,6.103H145.573c-3.361,0-6.103-2.741-6.103-6.103V13.785     C139.471,10.424,142.212,7.683,145.573,7.683z" clip-rule="evenodd"/><path fill="#a79ba7" fill-rule="evenodd" d="M145.573 7.683h14.293v302.7h-14.293c-3.362 0-6.103-2.742-6.103-6.103V13.785C139.471 10.424 142.212 7.683 145.573 7.683zM335.18 8.212c.648.296 1.245.716 1.788 1.258l34.264 34.264c.543.543.962 1.139 1.259 1.787h-34.259c-1.681 0-3.051-1.37-3.051-3.051V8.212z" clip-rule="evenodd"/><path fill="#80b4fb" fill-rule="evenodd" d="M191.211,58.97h32.291c3.51,0,6.355,2.845,6.355,6.355v32.291c0,3.51-2.845,6.355-6.355,6.355h-32.291     c-3.51,0-6.355-2.845-6.355-6.355V65.325C184.856,61.815,187.701,58.97,191.211,58.97z" clip-rule="evenodd"/><path fill="#61a2f9" fill-rule="evenodd" d="M221.912,58.97h1.589c3.51,0,6.355,2.845,6.355,6.355v32.291c0,3.51-2.845,6.355-6.355,6.355h-32.291     c-3.51,0-6.355-2.845-6.355-6.355v-1.589h30.702c3.51,0,6.355-2.845,6.355-6.355V58.97z" clip-rule="evenodd"/><g><path fill="#ffe177" fill-rule="evenodd" d="M292.074,216.773L392.833,42.252c5.462-9.461,17.634-12.722,27.094-7.26l6.871,3.967     c9.461,5.462,12.722,17.634,7.26,27.095L333.299,240.574l-34.118,19.698c-1.507,0.87-3.231,0.87-4.738,0     c-1.507-0.87-2.369-2.363-2.369-4.104L292.074,216.773z" clip-rule="evenodd"/><path fill="#ffd064" fill-rule="evenodd" d="M430.896,42.102c6.189,6.192,7.739,16.023,3.162,23.951L333.299,240.574l-25.484,14.714L430.896,42.102z" clip-rule="evenodd"/><path fill="#685e68" fill-rule="evenodd" d="M292.074,256.168l0-39.396l41.225,23.801l-34.118,19.698c-1.507,0.87-3.231,0.87-4.738,0     C292.936,259.402,292.074,257.908,292.074,256.168z" clip-rule="evenodd"/></g><path fill-rule="evenodd" d="M195.029,68.829h24.652V93.48h-24.652V68.829L195.029,68.829z M187.034,109.479h40.647c4.42,0,8-3.58,8-7.999   V60.83c0-4.42-3.58-8.001-8-8.001h-40.647c-4.42,0-8,3.58-8,8.001v40.65C179.033,105.899,182.614,109.479,187.034,109.479   L187.034,109.479z M252.483,60.83c0-4.42,3.59-8.001,8-8.001h47.756c4.41,0,8,3.58,8,8.001c0,4.419-3.59,7.999-8,7.999h-47.756   C256.073,68.829,252.483,65.249,252.483,60.83L252.483,60.83z M252.483,101.481c0-4.42,3.59-8.001,8-8.001h64.488   c4.42,0,8,3.58,8,8.001c0,4.418-3.58,7.999-8,7.999h-64.488C256.073,109.479,252.483,105.899,252.483,101.481L252.483,101.481z    M147.471,16v286.07h217.063v-99.911l-24.322,42.12c-0.703,1.211-1.712,2.22-2.92,2.93l-41.109,23.729   c-1.203,0.721-2.59,1.141-4.09,1.141c-0.009,0-0.009,0-0.009,0c-0.009,0-0.023,0-0.023,0H187.034c-4.42,0-8-3.58-8-8.001   c0-4.419,3.58-7.999,8-7.999h97.031v-24.651h-97.031c-4.42,0-8-3.58-8-8.001c0-4.419,3.58-7.999,8-7.999h97.097   c0.132-1.041,0.472-2.04,1-2.961l12.529-21.69H187.034c-4.42,0-8-3.58-8-7.999c0-4.42,3.58-8.001,8-8.001h119.857l14.241-24.651   H187.034c-4.42,0-8-3.58-8-8c0-4.419,3.58-7.999,8-7.999h137.938c1.698,0,3.269,0.529,4.562,1.43l35.001-60.61V53.761h-29.76   c-4.425,0-8-3.581-8-8.001V16H147.471L147.471,16z M342.774,27.307l10.448,10.453h-10.448V27.307L342.774,27.307z M300.06,230.329   l17.231,9.95l-17.231,9.95V230.329L300.06,230.329z M399.761,45.94L302.99,213.551l27.373,15.799l96.767-167.61   c3.264-5.65,1.321-12.91-4.331-16.169l-6.868-3.971C410.271,38.341,403.021,40.28,399.761,45.94L399.761,45.94z M139.471,318.07   h233.063c4.42,0,7.995-3.589,7.995-8.001V174.45l60.464-104.71c7.656-13.289,3.099-30.352-10.194-38.031l-6.877-3.958   c-6.42-3.712-13.92-4.703-21.109-2.769c-7.203,1.929-13.203,6.528-16.911,12.958l-5.373,9.299V45.76c0-2.121-0.84-4.161-2.34-5.66   L340.434,2.34c-1.5-1.5-3.542-2.34-5.66-2.34H139.471c-4.42,0-8,3.58-8,8v302.069C131.471,314.48,135.051,318.07,139.471,318.07   L139.471,318.07z M496.009,282.7l-39.859,6.379c-3.302,0.531-5.897,3.04-6.557,6.309c-5.062,24.91-14.769,48.33-28.883,69.61   c-1.835,2.781-1.759,6.411,0.194,9.11l23.689,32.71l-37.76,37.77l-32.723-23.691c-2.698-1.958-6.326-2.029-9.109-0.19   c-21.26,14.102-44.68,23.81-69.606,28.861c-3.274,0.66-5.783,3.28-6.312,6.58L282.701,496h-53.398l-6.382-39.85   c-0.528-3.3-3.038-5.92-6.312-6.58c-24.906-5.039-48.327-14.75-69.61-28.861c-2.778-1.839-6.406-1.769-9.108,0.19l-32.718,23.691   l-37.76-37.77l23.689-32.71c1.948-2.699,2.029-6.329,0.189-9.11c-14.1-21.26-23.807-44.68-28.859-69.61   c-0.66-3.269-3.279-5.778-6.58-6.309L16,282.7v-38.391h74.88c-0.278,3.89-0.41,7.8-0.41,11.689   c0,91.282,74.252,165.53,165.533,165.53c91.281,0,165.528-74.248,165.528-165.53c0-3.89-0.127-7.799-0.41-11.689h74.889V282.7   L496.009,282.7z M503.981,228.31c4.434,0,8.019,3.58,8.019,8.001v53.209c0,3.93-2.83,7.281-6.745,7.9l-41.181,6.591   c-5.283,23.12-14.34,44.98-27.001,65.149l24.501,33.81c2.264,3.181,1.934,7.57-0.849,10.35l-47.402,47.399   c-2.783,2.781-7.17,3.131-10.349,0.829l-33.812-24.479c-20.151,12.629-42.02,21.701-65.148,27.011l-6.59,41.179   c-0.622,3.89-3.972,6.74-7.901,6.74h-67.04c-3.929,0-7.278-2.851-7.901-6.74l-6.59-41.179c-23.118-5.31-44.982-14.37-65.148-27.011   l-33.812,24.479c-3.179,2.302-7.571,1.951-10.35-0.829L51.284,413.32c-2.783-2.781-3.132-7.17-0.835-10.35l24.482-33.81   c-12.632-20.151-21.699-42.021-27.01-65.149l-41.18-6.591C2.854,296.8,0,293.45,0,289.52v-53.209c0-4.42,3.58-8.001,8-8.001h91.691   c2.293,0,4.481,0.98,6,2.699c1.519,1.721,2.222,4.01,1.939,6.291c-0.769,6.18-1.156,12.469-1.156,18.699   c0,82.45,67.077,149.531,149.528,149.531c82.45,0,149.528-67.081,149.528-149.531c0-6.23-0.387-12.519-1.156-18.699   c-0.283-2.281,0.415-4.569,1.939-6.291c1.519-1.719,3.708-2.699,6-2.699H503.981z" clip-rule="evenodd" fill="#69e5aa"/></svg>