<svg xmlns="http://www.w3.org/2000/svg" enable-background="new 0 0 68 68" viewBox="0 0 68 68"><path fill="#f4f4f4" d="M64.0944901,31.802372l-4.6148567,2.683979l-1.3529472-6.1298046    c0.2933731-0.1663818,0.7618446-0.1663818,1.0552177,0l4.9082069,2.8372154    C64.3834839,31.3601456,64.3878403,31.6316051,64.0944901,31.802372z"/><path fill="#EF473E" d="M57.5594978 31.9397602c-.8692589.5051594-2.1696892-.3097153-1.3519135-.7849541C57.0848427 30.6449986 58.3844299 31.4603615 57.5594978 31.9397602zM56.9325752 31.7761192c.1068954.0044327.1945953-.0110531.2630768-.0508518.1197777-.0696068.127533-.2040806-.0628395-.3139915-.1581688-.0913181-.394474-.121254-.5498543-.0309563-.1545792.0898304-.0926704.2242069.0628281.3139839C56.7300491 31.7429523 56.8294525 31.769495 56.9325752 31.7761192M59.6089478 31.1746864c.873188-.5074406 2.1823769.3023529 1.3519783.7849293-.3814087.2216511-.9537811.1854839-1.3094788-.0198784C59.2823906 31.7266636 59.2344437 31.3923244 59.6089478 31.1746864zM60.2664986 31.3471584c-.1068916-.0044327-.1946144.0110416-.2669182.0530586-.1489639.0865669-.091507.2204533.0666504.3117657.1918945.1107903.4293785.1009808.5498619.0309639.0685387-.0398293.0949364-.0906487.0831642-.1503601-.0156021-.0574856-.0655098-.1127949-.1497688-.1614418C60.4652367 31.3825035 60.3696213 31.3537941 60.2664986 31.3471584"/><polygon fill="#EF473E" points="57.913 30.248 58.457 29.932 59.264 32.906 58.72 33.222"/><path fill="#69e5aa" d="M51.364193,37.6575317c0,0.2789764-0.186039,0.5580635-0.5581207,0.7719765L23.8413239,54.000042   c-0.7254791,0.4185181-1.8974648,0.4185181-2.6230011,0l-15.921463-9.1611328   c-0.3627682-0.213913-0.5394969-0.4836922-0.5394969-0.7533531l-0.0092535-2.2789116   c0-0.2046051,0.1023016-0.4092064,0.2976513-0.5858803c-0.3162723,0.139431-0.5859928,0.1208076-0.7906528-0.0186195   c-0.018621-0.0093117-0.0278749-0.0186234-0.0464959-0.0279312l-1.8882113-1.088192   c-0.2325351-0.1396561-0.3813324-0.4279404-0.3813324-0.8465729L1.8832622,20.1813087   c0-0.8371487,0.5953033-1.860281,1.3207829-2.2787971L30.1687946,2.3319767   c0.3720779-0.2139142,0.6976051-0.2325351,0.9394493-0.0931048l1.9625835,1.1440539   c-0.0185661-0.0093105-0.0278778-0.018621-0.0464973-0.018621c0.2697754,0.1210363,0.4371948,0.4186311,0.4371948,0.8650801   l0.0464973,19.0582523c0.0093079,0.734848-0.4464493,1.6091251-1.0510635,2.0928154   c0.7347908-0.3349495,1.7765427-0.2977085,2.4462738,0.0836811l15.9121513,9.1611328   c0.3627701,0.2139168,0.5394974,0.4836922,0.5394974,0.7626648L51.364193,37.6575317z"/><path fill="#f4f4f4" d="M33.5121346,23.2922401c0,0.8299561-0.5899658,1.8599854-1.3200073,2.2698975l-17.0199604,9.8300781    l5.5700073-25.3399658l11.9699726-6.7600098h0.0100098c0.4400024,0,0.7399902,0.3399658,0.7399902,0.9400637v0.9799805    L33.5121346,23.2922401z"/><polygon fill="#F9D893" points="12.346 28.616 12.364 34.897 9.093 36.785 9.075 30.504"/><polygon fill="#EF473E" points="17.673 23.463 17.697 31.817 14.426 33.706 14.403 25.351"/><polygon fill="#662DDC" points="28.907 11.729 28.945 25.323 25.675 27.212 25.636 13.618"/><path fill="#908fa1" d="M36.310173 42.5768127l-5.3971024 3.1391869c-.0428085.0170174-.0770035.0255814-.1197586.0427017-.2138309.0855141-.5046654.0683899-.692812-.0427017l-3.1133957-1.8219528c-.222393-.1282158-.222393-.3249245 0-.4533463l5.4056606-3.1389771c.2395172-.1197586.5816154-.1197586.8040085 0l.1026344.0684929 3.0107651 1.7533531C36.5240021 42.2518883 36.5410728 42.448597 36.310173 42.5768127zM33.386055 34.8947983l-1.4260445-.8310852c-.0787086-.0437851-.069952-.113739 0-.1575241l1.434803-.8310852c.0787621-.0437889.2012024-.0437889.2712097 0l1.4260445.8310852c.0787621.0437851.0787621.113739 0 .1575241l-1.434803.8310852C33.5873146 34.9385872 33.4560623 34.9385872 33.386055 34.8947983zM11.7679882 41.4650993l-1.434804.831089c-.0787621.0437851-.2012033.0437851-.2712078 0l-1.4260473-.831089c-.0787621-.0437851-.0787621-.1137352-.0087566-.1574173l1.434804-.8224335c.0787086-.0524368.2012033-.0524368.2799654-.0087585l1.4260464.831192C11.8379402 41.3513641 11.8379402 41.4213142 11.7679882 41.4650993zM29.65909 32.3577538l1.4348049.8310852c.0700035.0437889.0700035.1136322 0 .1574173l-1.4435081.831089c-.0700054.0437851-.1924992.0350266-.2625046 0l-1.4347515-.831089c-.0700035-.0437851-.0787621-.1136284 0-.1574173l1.4347515-.8310852C29.4666443 32.3139687 29.5891399 32.3139687 29.65909 32.3577538zM24.0686951 32.5589561c-.0787621-.0437851-.0787621-.1226006-.0087566-.1575241l1.434803-.831192c.0787086-.0436783.2099609-.0436783.2799129 0l1.4260464.831192c.0787621.0349236.0787621.113739 0 .1575241l-1.4347515.831089c-.0787621.0350266-.2012558.0350266-.2712078 0L24.0686951 32.5589561zM30.7789536 36.3995552L29.3529072 35.56847c-.0787621-.0437889-.0787621-.113739 0-.1574173l1.434803-.8224373c.0787086-.0524368.1924458-.0436783.2712078 0l1.4260483.8224373c.0699501.0436783.0787086.1136284 0 .166172l-1.4348049.8223305C30.9713993 36.4433403 30.8489571 36.4433403 30.7789536 36.3995552zM13.7801847 38.4992714c-.0787621-.0436821-.0787621-.113739-.0087576-.1575241l1.434804-.831089c.0787086-.0437851.2099609-.0437851.2799654 0l1.4260464.831089c.0787086.0437851.069952.113842 0 .1575241l-1.434803.831192c-.0787621.0350304-.2012568.0350304-.2712088 0L13.7801847 38.4992714zM19.4930744 43.0749435l-3.9281693 2.2657814c-.0700045.0437889-.2012033.0437889-.2712078 0l-1.4260464-.8310852c-.0787086-.0437851-.0787086-.1136284 0-.1574173l3.9281693-2.265995c.0787621-.0436821.2012577-.0436821.2712078 0l1.4260464.8224335C19.5718365 42.9610977 19.5718365 43.0311584 19.4930744 43.0749435zM25.5472317 39.4179306l-1.4260464-.8311958c-.0700054-.0436783-.0700054-.1136284.0087566-.1574173l1.4347515-.8310852c.0700035-.0437851.2012558-.0437851.2712078 0l1.4260464.8310852c.0787621.0437889.0787621.113739 0 .1574173l-1.4347496.8311958C25.748436 39.4616089 25.6259403 39.4616089 25.5472317 39.4179306zM18.8981686 41.6051102c-.069952-.0437851-.069952-.113739.0087566-.1662827l1.4348049-.8223267c.0700035-.0437851.2012024-.0437851.2712078 0l1.4260464.8223267c.0787086.0525436.0787086.1224976 0 .1662827l-1.434803.8224373c-.0700054.0524368-.2012043.0524368-.2799664 0L18.8981686 41.6051102zM16.3523121 37.0120277c-.0787621-.0437851-.0787621-.1137352-.0087566-.1575241l1.434803-.8310852c.0787086-.0437851.2099609-.0437851.2799664 0l1.4260464.8310852c.0787086.0437889.0787086.113739 0 .1575241l-1.434803.831089c-.0787621.0437851-.2012577.0437851-.2712097 0L16.3523121 37.0120277zM18.9244404 35.5246811c-.0787621-.0436783-.0787621-.1136284-.0087585-.1574173l1.4348049-.8310852c.0787086-.0437851.2099609-.0437851.2799644 0l1.4259949.8310852c.0787621.0437889.0787621.113739 0 .1574173l-1.4347515.831192c-.0787621.0436821-.2012558.0436821-.2712078 0L18.9244404 35.5246811zM21.8639984 36.8632622l1.4260464.8310852c.0787086.0350304.0700054.1138458 0 .1575241l-1.434803.8311958c-.0787086.0349197-.2012043.0349197-.2712078 0l-1.4348049-.8311958c-.0699501-.0436783-.0699501-.1224937 0-.1575241l1.4348049-.8310852C21.662796 36.8194771 21.7852364 36.8194771 21.8639984 36.8632622zM11.2080574 39.986618c-.0787621-.0437851-.0787621-.1226006-.0087576-.1662827l1.434804-.8224335c.0787086-.0436821.2012033-.0436821.2799654 0l1.4260464.8224335c.069952.0436821.069952.1224976 0 .1662827l-1.434803.8223267c-.0787621.0437889-.2012043.0437889-.2712088 0L11.2080574 39.986618zM22.9400749 40.9226837l-1.4260464-.831192c-.069952-.0436783-.0787086-.1136322 0-.1574173l1.434803-.8223305c.0787621-.0437851.2012043-.0437851.2712097 0l1.4260464.8223305c.0787621.0437851.0787621.113739.0087566.1661758l-1.4435616.8224335C23.1413326 40.966362 23.018837 40.966362 22.9400749 40.9226837zM24.4623451 35.3585091l1.4260464.8310852c.0787621.0437851.0787621.113842 0 .1575241l-1.4347496.831192c-.0787621.0436783-.2012577.0436783-.2712097 0l-1.434803-.831192c-.0700054-.0436821-.0700054-.113739 0-.1575241l1.4435081-.8310852C24.2611408 35.3147202 24.3923931 35.3147202 24.4623451 35.3585091zM29.2129498 29.5842628c-.0787621-.0436802-.0787621-.1136303-.0087566-.1574173l1.4435081-.8310871c.0700035-.0437851.2012558-.0437851.2712078 0l1.4260464.8310871c.0787621.043787.0787621.1137371 0 .1574173l-1.4347496.831192c-.0787621.0436802-.2012577.0436802-.2712097 0L29.2129498 29.5842628zM31.9862823 32.6725883l-1.4348049-.8310852c-.0700054-.043787-.0787086-.113739 0-.1574173l1.4348049-.8311939c.0787086-.0436802.2012024-.0349216.2712059 0l1.4348068.8311939c.0699501.0436783.0787086.1136303 0 .1574173l-1.4348068.8310852C32.1787262 32.7163734 32.0562859 32.7163734 31.9862823 32.6725883zM34.5846291 32.3926773l3.875679-2.2396183c.0700035-.043787.1924973-.043787.2712593 0l1.4259949.8310852c.0700035.043787.0700035.1137371 0 .1574173l-3.875679 2.2397251c-.0699539.0437851-.2012062.0437851-.2799683 0l-1.4259911-.8310852C34.5059204 32.5064125 34.5059204 32.4363556 34.5846291 32.3926773zM31.785078 28.1057796c-.0787621-.043787-.0787621-.1223888 0-.1661758l1.4347515-.8310852c.0700035-.0350285.2012558-.0350285.2712059.0087566l1.4348068.8223286c.0700035.043787.0700035.1223888-.0087585.1574173l-1.4347496.8310871c-.0700073.043787-.2012596.043787-.2712631 0L31.785078 28.1057796zM28.1630917 37.9043083l-1.4260464-.8223267c-.0700035-.0437889-.0700035-.113739 0-.1574173l1.4348049-.8311958c.0787086-.0436783.2012024-.0436783.2799644 0l1.4259949.8224373c.0700035.0524368.0700035.1223869-.0087051.1661758l-1.434803.8310852C28.364296 37.9480972 28.2418003 37.9480972 28.1630917 37.9043083zM33.2023659 30.1618156l2.6333237-1.5310268c.0787621-.0350304.2012558-.0350304.2712593 0l1.4347534.8310852c.0700035.043787.0700035.1223888 0 .1574173l-2.6420784 1.5310268c-.0700073.0350304-.2012596.0350304-.2712097 0l-1.434803-.8398438C33.1236038 30.2754459 33.1236038 30.1967373 33.2023659 30.1618156zM27.0607452 33.8537521l1.434803.8398438c.069952.0350304.069952.113739-.0087566.1486588l-1.4348049.8311958c-.0700035.0436783-.2012024.0436783-.2712078 0l-1.4348049-.8311958c-.0699501-.0349197-.0699501-.1136284.0087585-.1574173l1.434803-.8310852C26.8595409 33.8187218 26.9907398 33.8187218 27.0607452 33.8537521zM26.6408234 31.0716095c-.0787621-.0436783-.0787621-.1137371-.0087585-.1575241l1.4435081-.8310852c.0700054-.043787.2012577-.043787.2712078 0l1.4260483.8310852c.0787621.043787.0787621.1138458 0 .1575241l-1.4347515.8311939c-.0787621.0436802-.2012577.0436802-.2712078 0L26.6408234 31.0716095zM42.7734756 32.6638298l-4.0244446 2.327301c-.0787086.0436783-.2012062.0436783-.2799683 0l-1.4260445-.8311958c-.0787086-.0436783-.0699539-.1137352.0087547-.1575241l4.0244484-2.3270836c.0699501-.0437851.1924438-.0437851.2712059 0l1.4260483.8310852C42.8521843 32.5502014 42.8434258 32.6201515 42.7734756 32.6638298zM16.6584969 39.8640175l1.4260464.831192c.0787621.0436783.0787621.1137352 0 .1575241l-1.4348049.8310852c-.0787086.0437851-.1924458.0350304-.2712078 0l-1.4260464-.8310852c-.0699511-.0437889-.0787086-.1138458 0-.1575241l1.434803-.831192C16.4660492 39.8203354 16.5884914 39.8203354 16.6584969 39.8640175zM21.5403004 44.7633896c.0700054.0437851.0700054.1137352 0 .1574173l-3.3595333 1.9421883c-.069952.0437889-.1924477.0437889-.2712097 0l-1.4260464-.8310852c-.0787086-.0437851-.069952-.1136322 0-.1574173l3.3595352-1.9334335c.0700035-.0437851.1924458-.0437851.2712078 0L21.5403004 44.7633896zM21.4965668 34.0461998c-.0787621-.0437889-.0787621-.1224976-.0087566-.1661758l1.434803-.8224373c.0787086-.0436783.2099609-.0436783.2799664 0l1.425993.8224373c.0787621.0436783.0787621.1223869 0 .1661758l-1.4347496.8223267c-.0787621.0437889-.2012577.0437889-.2712097 0L21.4965668 34.0461998zM37.8129082 35.3760223c.0700073.0437851.0700073.1049805 0 .1486588l-14.776556 8.5300102c-.0700054.0437851-.1924992.0437851-.2712078 0l-1.4260483-.831089c-.0700035-.0437851-.0700035-.1137352.0087051-.1574173l14.7678528-8.5212479c.0700035-.0437889.1925011-.0437889.2712097 0L37.8129082 35.3760223zM15.0049744 42.6287498l-2.0559292 1.1897087c-.0700045.0437851-.2012033.0437851-.2712088 0l-1.434804-.831089c-.0699511-.0437851-.0699511-.1137352 0-.1574173l2.0646868-1.1899185c.0787621-.0436821.2012568-.0436821.2712622 0l1.4347506.831192C15.0837364 42.514904 15.0837364 42.5849648 15.0049744 42.6287498zM18.9769306 40.1790657l-1.4260464-.831089c-.0700054-.0437851-.0787621-.113842 0-.1575241l1.434803-.831192c.0787086-.0436783.2012043-.0349236.2712078 0l1.4347515.831192c.0700035.0436821.0700035.113739 0 .1575241l-1.4435081.831089C19.178133 40.2228508 19.0556393 40.2228508 18.9769306 40.1790657z"/><polygon fill="#DEDDE2" points="30.632 26.954 30.63 26.955 30.628 26.954"/><path fill="#DAE4C9" d="M39.106945 54.2612343c-.6336861.36586-.6370125.9529228-.0147591 1.314537.6295013.3658257 1.643116.3658752 2.2767982.0000191.6263123-.3616028.6295433-.9487267.0000381-1.3145523C40.746769 53.8996239 39.7332573 53.8996315 39.106945 54.2612343zM51.7152786 53.6556282c-2.0369987 1.1944771-5.7840576.943058-8.3366356-.5533409-2.5650902-1.4836578-2.9926453-3.6463661-.943058-4.8409996 2.0495834-1.1694603 5.7966423-.9178848 8.3492241.5659256C53.3498955 50.3108711 53.7648621 52.4861679 51.7152786 53.6556282z"/><polygon fill="#D9DADF" points="61.443 49.932 61.443 54.124 58.441 55.85 58.441 51.666 46.153 44.521 49.148 42.788"/><path fill="#979AAB" d="M58.0012093 28.1400185l-4.8754883 2.8364258c-.2177734.1235352-.3432617.3110352-.3442383.5151367 0 .0002441.0002441.0004883.0002441.0004883 0 .0019531-.001709.0028076-.001709.0043945v3.0874023c0 .2084961.125.3994141.3422852.5234375l4.9125977 2.8369141c.1777344.1030273.4091797.159668.6508789.159668.0056152 0 .0106201-.0018311.0161743-.0019531.0022583.0001221.00354.0024414.0057983.0024414.0040894 0 .0063477-.0041504.010376-.0043945.2295532-.0048828.4490356-.0574951.6190186-.1557617l4.8789024-2.8364258c.2172852-.1245117.3422852-.3139648.3422852-.519043l.0043945-3.0874023v-.0004883c0-.0009766-.0010376-.0015869-.0010376-.0025635 0-.0006104.0005493-.0010986.0005493-.0018311-.0009766-.2055664-.1279297-.3950195-.347168-.519043l-4.9101524-2.8388672C58.94701 27.9359169 58.3630257 27.9354286 58.0012093 28.1400185zM53.3713264 34.6737099c-.0698242-.0395508-.0913086-.0795898-.0913086-.0898438v-2.4750977l1.9162598 1.1049805 2.842041 1.6430664c.1196899.0678711.2661133.1064453.4194336.1306152v2.5866699c-.0645752-.0146484-.1247559-.034668-.1728516-.0625L53.3713264 34.6737099zM64.0583344 34.5882607c-.0004883.0068359-.0185547.0439453-.0922813.0864258l-4.8793945 2.8369141c-.0358887.020752-.0831299.0332031-.1289063.0466309V34.983036c.1400757-.0257568.2734375-.064209.3852539-.1276855l3.097168-1.8016357 1.6215782-.9415283L64.0583344 34.5882607zM64.0622406 31.4989052c-.0004883.0068359-.0195313.0439453-.0932579.0869141l-1.7816772 1.0366211-3.0982056 1.7988281c-.0500488.0297852-.1121826.052002-.1802979.0668945-.0722046.0151367-.1506348.0216064-.2289429.0209961-.1454468-.0019531-.2906494-.0310059-.3910522-.0893555l-2.9273071-1.6878662-1.9823608-1.1461182c-.0776367-.0449219-.097168-.0844727-.0976563-.0917969.0004883-.0063477.0195313-.0424805.09375-.0844727l4.8745117-2.8354492c.1035156-.0585938.2509766-.0922852.4047852-.0922852.1533203 0 .3007813.0336914.4023438.0908203l4.909668 2.8383789C64.0422211 31.4539833 64.0617523 31.4920692 64.0622406 31.4989052zM31.5881214 5.953495c-.0771484-.0439453-.1723633-.0444336-.2495117.0004883L6.0319695 20.5618935c-.1884766.1289063-.4145508.5180664-.4326172.7626953l.0458984 17.1142578c.0004883.0893555.0478516.171875.1254883.2163086.0801673.0456657.1748567.0429802.2495117-.0004883l25.3085938-14.609375c.1821289-.1245117.4121094-.5107422.4331055-.7485352L31.7136097 6.1698036C31.7131214 6.0804482 31.6657581 5.9979286 31.5881214 5.953495zM31.0627308 23.6224403l-7.7393188 4.4674072-.0291748-10.2883301-3.2706299 1.8883057.0291748 10.2879639L6.1442742 38.0062294 6.0983758 21.3446083c.0107422-.0834961.1499023-.3217773.199707-.3598633L31.2150745 6.6024208l.0483398 16.6694336C31.2502308 23.3533974 31.1100941 23.5863075 31.0627308 23.6224403z"/><path fill="#979AAB" d="M51.6140022,37.6580849l-0.0092163-2.265625c0-0.0019531,0.0009155-0.0039063,0.0009155-0.0058594       c0-0.0021973-0.0009766-0.0041504-0.0009766-0.0062256v-0.0010986c0,0-0.0002441-0.0003662-0.0002441-0.0006104       c-0.0029297-0.3756104-0.2367554-0.7178955-0.6628418-0.9656982L35.025135,25.2513466       c-0.4902954-0.2845459-1.1951294-0.3676758-1.8497314-0.2910156c0.3538818-0.5042725,0.5865479-1.1188965,0.5865479-1.668457       c-0.0050926-1.9488354,0.0184479,7.0597515-0.0498047-19.0595703c0-1.2065125-0.9308243-1.1466522-2.4829121-2.2104495       c-0.3286133-0.1884766-0.7514648-0.1582031-1.1889648,0.09375L3.0754263,17.6859169       c-0.8105469,0.4677734-1.4458007,1.5639648-1.4458007,2.496582L1.685778,39.2396278       c0,0.4892578,0.1782227,0.8657227,0.505371,1.0625l1.9697268,1.1425781c0,0,0.0004883,0,0.0004883,0.0004883       l0.0009766,0.0004883c0.0004883,0.0004883,0.0014648,0.0004883,0.0014648,0.0004883       c0.0528154,0.0314178,0.2183166,0.0845337,0.3777466,0.0991211c-0.0818291,0.2724953-0.0260158,0.3548431-0.0344849,2.5419922       c0,0.3730469,0.2353516,0.7167969,0.6650391,0.9702148l15.9208984,9.1611328       c0.8037338,0.4630318,2.0697556,0.4632988,2.8730469-0.0004883L50.9304085,38.647831       C51.3713264,38.394413,51.6140022,38.0433388,51.6140022,37.6580849z M34.775135,25.6844521l15.9165039,9.1616211       c0.2658081,0.1542969,0.4111938,0.3447266,0.4126587,0.536377c-0.0010986,0.1936035-0.1558228,0.3953857-0.4234009,0.5534668       l-26.974123,15.5703125c-0.5493698,0.3174515-1.7567329,0.363636-2.3735352,0L5.4150262,42.3468056       c-0.4155445-0.2421455-0.5822973-0.5955734-0.1932983-0.942627c0.0418701-0.0205078,0.0830688-0.0310059,0.1251831-0.0556641       l26.9677753-15.5688477c0.0725708-0.0407715,0.1422119-0.0925293,0.2119141-0.1437988       C33.2774315,25.2820683,34.2156982,25.3592815,34.775135,25.6844521z M32.2148323,25.2271767       c-0.0223389,0.0118408-0.0524292,0.015625-0.0739746,0.0280762L5.1735711,40.8245888       c-0.0827026,0.0476074-0.1514893,0.1018066-0.2197266,0.15625c-0.5126252,0.2212601-0.7809486-0.044735-0.798645-0.5549316       c-0.0003662-0.0129395-0.0031128-0.0340576-0.0031128-0.0441895L4.1187005,28.2613564       c-0.000237-0.1000347-0.0175157-7.4029484-0.0164185-6.939209c0-0.7532921,0.6094995-1.7252216,1.1953125-2.059082       L32.2639046,3.6912878c0.5556297-0.327173,0.9482422-0.0348558,0.9482422,0.5410159l0.0498047,19.0600586       C33.2619514,23.9818153,32.7938728,24.8118935,32.2148323,25.2271767z M3.3254263,18.1190224L30.2897816,2.5487096       c0.2056313-0.1181788,0.4814644-0.2132695,0.6889648-0.0942383l1.2177753,0.7099609       c-0.0324707,0.0144043-0.0643921,0.0332031-0.0966187,0.0498047c-0.0313721,0.0158691-0.0610962,0.0231934-0.0928345,0.0415039       L5.0363641,18.8265419c-0.3957582,0.2306919-0.6913557,0.5642853-0.9390869,0.9501953L2.599108,18.8555946       C2.8038199,18.5501747,3.0500968,18.2778358,3.3254263,18.1190224z M2.4455435,39.8714638       c-0.1674805-0.1005859-0.2597656-0.324707-0.2597656-0.6328125L2.1296256,20.1815224       c0-0.2822266,0.0964355-0.5891113,0.2295532-0.8867188l1.4970093,0.9204102       c-0.1633911,0.3647461-0.2583618,0.7498779-0.2543945,1.1108398l0.0463867,19.0576172       c0,0.065918,0.003418,0.1293945,0.0102539,0.1914063L2.4455435,39.8714638z M5.4235711,44.62537       c-0.2685547-0.1582031-0.4165039-0.3496094-0.4165039-0.5390625l-0.0058594-1.4130859       c0.050293,0.0371094,0.1044922,0.0722656,0.1616211,0.1054688l0.0020142,0.0012207l0.0004272,0.0002441l15.9165039,9.1611328       c0.3265381,0.1894531,0.7485962,0.2880859,1.1938477,0.3203125v1.7681885       c-0.3460083-0.0288086-0.6815186-0.0994873-0.9331055-0.244751L5.4235711,44.62537z M50.6808968,38.2147255       L23.7160511,53.785038c-0.2531738,0.1462402-0.5916138,0.2175293-0.9404297,0.2456055v-1.7705078       c0.440918-0.0336914,0.8596802-0.1313477,1.1845703-0.3188477l26.9672871-15.5698242       c0.0027466-0.0015869,0.0045776-0.00354,0.0072632-0.005127c0.0617065-0.036377,0.119751-0.0749512,0.1734009-0.1149902       l0.0058594,1.4077148C51.1140022,37.8538857,50.9562874,38.0560341,50.6808968,38.2147255z"/><path fill="#979AAB" d="M41.1320686 25.554081l8.2537231 4.7619629c0 0 .0006714.0009766.0011597.0012207.0385742.0219727.0820313.0332031.125.0332031s.0864258-.0112305.125-.0332031l.0004883-.0004883 0 0 2.1982422-1.2783203c.0771484-.0449219.1245117-.1269531.1245117-.2158203l.0078125-3.7999268c.0001831-.0039063.0029297-.0072021.0029297-.0111084 0-.0888672-.0478516-.1713867-.125-.2158203l-.0023193-.0013428-.0006104-.0006104c-.0002441-.0001221-.0006104-.0001221-.0006104-.0001221L43.594471 20.03162c-.0144043-.0083008-.0240479-.0183105-.038269-.0267334.0006104-.0003662.0010376-.0007324.0016479-.0010986 1.9536324-1.1375217 5.1479568-1.1456394 7.1308594.0004883l8.2470703 4.7626953c.0385742.0224609.0820313.0336914.125.0336914s.0859375-.0112305.1245117-.0332031l.0003052-.0002441c.0001831-.0002441.0004883-.0001221.0004883-.0001221l2.1984253-1.2784424c.0766602-.0449219.1240234-.1264648.1245117-.215332l.0156097-3.8120117c.0005035-.0893555-.047348-.1723633-.125-.2172852-.0010223-.0006104-.0023651-.0002441-.0034027-.0009766l-8.2490234-4.7626953c-3.3911438-1.957963-8.7637444-1.9072647-12.0419922-.0029297-1.635498.9509277-2.5366821 2.2297363-2.5425415 3.6038818-.0001221.0026855-.0028687.0042725-.0028687.006958l-.0078125 3.8105469C38.5432014 23.2918739 39.4597054 24.5902138 41.1320686 25.554081zM49.762928 29.6654091l.0018921-.9750977.0046387-2.2547607 1.6975708-.9866943-.0063477 3.229248L49.762928 29.6654091zM43.2883186 19.5824013c-.0603027.036377-.1204834.072998-.1785278.1107178-1.4052963-1.1094437-1.132946-2.5694695.4641724-3.5008545 1.8551941-1.0900927 5.073307-1.1845903 7.1225586.0009766.1030273.0594578 8.6761208 5.0069923 8.1292725 4.6914063l-.0132446 3.2337646-7.8738403-4.5467529C48.8284264 18.3513412 45.4476929 18.3242855 43.2883186 19.5824013zM61.00951 23.1282997l-1.6967773.9868164.0131836-3.2324219 1.6967773-.9868164L61.00951 23.1282997zM41.3561897 14.910038c3.1220169-1.8140392 8.3031769-1.8658409 11.5410156.0029297l7.8774261 4.5483398-1.6996307.9875488c-.103035-.0594501-8.6748695-5.0052347-8.1279907-4.6896973-2.1483841-1.2411747-5.5361443-1.2174234-7.6269531-.0029297-2.1817818 1.2682762-2.1156082 3.4733009.0244141 4.7080078l7.8753052 4.546875-1.7006836.9890137-8.1218872-4.6906738c-1.2991943-.7453613-2.1138306-1.7368164-2.2976074-2.7731934-.0246582-.1447754-.0380859-.2910156-.0383301-.4382324C39.0593147 16.9036903 39.8747444 15.7713661 41.3561897 14.910038zM39.056385 19.8016396c.0870132.1001263.5540466 1.0564651 2.0878906 1.9414063l8.125 4.6911621-.0042725 2.1875-.0021973 1.0466309-7.8807373-4.5473633c-1.5102539-.8701172-2.3374023-2.0136719-2.3300781-3.2202148L39.056385 19.8016396zM66.29216 47.1522255c0-.0200195-.0100098-.0400391-.0100098-.0600586-.0100098-.0200195-.0100098-.039917-.0200195-.0599365s-.0299683-.0300293-.039978-.039917c-.0200195-.0200195-.0300293-.0400391-.0499878-.0500488l-12.3200035-7.1600342c-.0800171-.0499268-.1799927-.0499268-.25 0L28.1721668 54.4522743c-.0599976.0400391-.0900269.0999756-.1100464.1599121 0 .0200195-.0099487.0400391-.0099487.0600586l.0099487 4.0999756c0 .0899658.0500488.1700439.1199951.2200928l12.330019 7.1599083c.0400391.0200195.0800171.0300293.1199951.0300293.0400391 0 .0900269-.0100098.1300049-.0300293l17.5200195-10.1199913c.0100098.0100098.0200195.0299072.0299683.0299072.0400391.0300293.0900269.0400391.1300049.0400391.0400391 0 .0800171-.0100098.1199951-.0400391l3.0100098-1.7199707c.0700073-.0499268.1199951-.1298828.1199951-.2199707v-.0600586l4.4899864-2.5898438c.0800171-.0500488.1300049-.130127.1300049-.2200928L66.29216 47.1522255zM28.5621204 58.632206l-.0099487-3.5200195 11.8199482 6.8701172c0 .3398438.0100098 3.2999229.0100098 3.5198936L28.5621204 58.632206zM40.6221199 61.5422401c-.9799805-.5599365-10.2099628-5.9300537-11.8199482-6.8699951l17.2199726-9.9399414c0 0 0 0 0 .0100098l11.8200073 6.8598633L40.6221199 61.5422401zM58.1921272 55.5122108l-17.3099976 9.9899864c0-.1900635-.0100098-3.2999229-.0100098-3.5198936l17.3200073-10V55.5122108zM61.1921272 53.7722206l-2.5 1.4500732v-3.7399902l-12.039978-6.960083 2.5-1.4500732 12.039978 6.960083V53.7722206zM61.3421516 49.5821571l-11.8300171-6.869873 4.210022-2.4300537 11.8300133 6.8699951L61.3421516 49.5821571zM61.6921272 53.4823036v-3.5200195l4.1100426-2.3701172.0099487 3.5200195L61.6921272 53.4823036z"/><path d="M57.938221 28.0321083l-4.8754883 2.8364258c-.2592773.1489258-.4077148.3774414-.4077148.6274414v3.0869141c0 .2568359.1552734.4941406.4067383.6308594l4.9091797 2.8354492c.1967773.1162109.4506836.1806641.7148438.1806641.2631836 0 .5170898-.0639648.715332-.1791992l4.8681602-2.8320313c.2597656-.1416016.4145508-.3774414.4145508-.6308594l.0043945-3.0874023c0-.2558594-.1513672-.4868164-.4106445-.6313477l-4.911129-2.8388672C58.9719124 27.8065224 58.3405647 27.8045692 57.938221 28.0321083zM63.9015999 34.5648232l-4.8774414 2.8374023c-.1669922.0961914-.5068359.0986328-.6748047-.0004883l-4.9443359-2.8188477.0327148-3.0649414 4.8735352-2.8354492c.0839844-.0473633.2124023-.0756836.3432617-.0756836.1303711 0 .2587891.0283203.3398438.0742188l4.9438477 2.8188477L63.9015999 34.5648232zM51.7390022 37.6561317l-.0092773-2.2680664c0-.4248047-.2573242-.8105469-.7275391-1.0878906l-15.9135742-9.1616211c-.4448242-.2539063-1.0493164-.3833008-1.6386719-.3588867.2768555-.4746094.4394531-1.0087891.4331055-1.4931641L33.8366585 4.2293739c0-.5161135-.1904297-.921387-.527832-1.136719-.0151367-.012207-.03125-.0239258-.0488281-.0341797l-1.9648457-1.1450195c-.3662109-.2109375-.8374023-.1801758-1.3139648.09375L3.0163443 17.5780067c-.8457031.487793-1.5083007 1.6318359-1.5083007 2.6044922L1.564196 39.2396278c0 .5351563.2001953.949707.5688475 1.1708984l1.9106448 1.1010742c.1035156.0708008.21875.121582.340332.1503906-.0073242.0483398-.0107422.097168-.0107422.1459961l.0092773 2.2773438c0 .4189453.2568359.8007813.7270508 1.0786133l15.9213867 9.1606445c.4072266.2348633.9394531.3642578 1.4990234.3642578s1.0917969-.1293945 1.4990234-.3642578l26.9638691-15.5698242C51.4738655 38.4779091 51.7390022 38.0882607 51.7390022 37.6561317zM50.6183968 38.1048622L23.6540394 53.6751747c-.5810547.3349609-1.6665039.3354492-2.2485352-.0004883L5.4870477 44.515995C5.26195 44.3826942 5.1325555 44.225956 5.1325555 44.0838661l-.0092773-2.2773438c0-.097168.0620117-.206543.1738281-.3081055.1367188-.1235352.1630859-.3276367.0629883-.4819336-.0708008-.109375-.190918-.1708984-.3144531-.1708984-.0512695 0-.1025391.0102539-.1518555.0322266-.1772461.078125-.2392578.1367188-.4975586-.0283203l-1.8828127-1.0854492c-.1264648-.0756836-.1992188-.2670898-.1992188-.5253906L2.2580435 20.1815224c0-.7045898.519043-1.5996094 1.1333008-1.9541016L30.3556995 2.6571081c.2324219-.1333008.4379883-.1665039.5634766-.0942383l1.8549824 1.0810547c.0283203.0249023.0605469.0463867.0966797.0625.1948242.0874023.2158203.3950198.2158203.523926l.0463867 19.0620117c.0078125.6025391-.3837891 1.3740234-.9101563 1.7949219-.1479492.1181641-.1845703.328125-.0854492.4892578.0986328.1611328.3017578.2226563.4750977.1450195.5996094-.2734375 1.5625-.2402344 2.1035156.0678711l15.9086914 9.1591797c.1323242.078125.3549805.2387695.3549805.440918l.0092773 2.2680664C50.9890022 37.8065224 50.8542366 37.96912 50.6183968 38.1048622z" fill="#000000"/><path d="M41.0070686 25.7708778l8.2548828 4.7626953c.0776367.0444336.1635742.0668945.25.0668945.0869141 0 .1738281-.0224609.2514648-.0678711l2.1982422-1.2783203c.1533203-.0893555.2480469-.253418.2485352-.4311523l.0078125-3.8115234c.0004883-.1787109-.0947266-.3442383-.25-.434082l-7.8969727-4.5600586c1.8662109-.8754883 4.6939087-.8369141 6.4926758.2036133l8.2470703 4.7626953c.1542969.0888672.3461914.0893555.5014648-.0009766l2.1982422-1.2783203c.1533203-.0888672.2480469-.2529297.2485352-.4301758l.0156097-3.8120117c.0005035-.1791992-.0947113-.3452148-.25-.4350586l-8.2534027-4.7617188c-3.450592-2.0050182-8.9339905-1.9596958-12.2871094-.0087891-1.7246094.9951172-2.6743164 2.3588867-2.6743164 3.8388672l-.0078125 3.8017578C38.2927132 23.3841591 39.2536507 24.7601357 41.0070686 25.7708778zM39.309803 18.0965614c0-1.1088867.7719727-2.1645508 2.1757813-2.9746094 3.0630035-1.782568 8.1603432-1.8071823 11.2841797.0087891l8.0039063 4.6176758-.0136719 3.2358398L59.059803 23.972538l-7.9956055-4.6171875c-2.1848145-1.263916-5.6620483-1.2941895-7.9047852.0131836-.1289063.0776367-.2568359.1557617-.3681641.2421875-.1245117.0961914-.1962891.2451172-.1943359.4018555.0019531.1572266.0776367.3041992.2045898.3969727.1298828.0952148.2680664.1821289.4194336.2714844l7.996582 4.6176758-.0068359 3.2353516-1.699707.9887695-8.0043945-4.6181641c-1.4287109-.8237305-2.2114258-1.8896484-2.2045898-3.003418L39.309803 18.0965614zM66.3097992 47.0814247l-12.2299767-7.324707c-.1152344-.0693359-.2592773-.0708008-.3759766-.0053711L28.0934925 54.0994911c-.1176758.065918-.1904297.1889648-.1918945.3237305l-.0395508 4.0991211c-.0014648.1328125.0683594.2568359.1821289.3251953l12.2299824 7.3237267c.0595703.0356445.1259766.0532227.1928711.0532227.0629883 0 .1264648-.0161133.1831055-.0478516l25.6103477-14.3476524c.1176758-.065918.1904297-.1889648.1918945-.3237305l.0395508-4.0986328C66.4933929 47.2738075 66.4235687 47.1497841 66.3097992 47.0814247zM65.7043304 51.2811317L40.4733772 65.4158936l-11.8593769-7.1015587.0356331-3.6669922 25.2309704-14.1352539 11.8593712 7.1025391L65.7043304 51.2811317z" fill="#000000"/><g><path fill="#69e5aa" d="M50.4731026,52.6640015l-0.4940033,0.2914848l-0.5731812-0.3265381     c-0.7811203,0.3747749-1.6955681,0.5851784-2.7585144,0.6312065l-0.1213264-0.7210579     c0.8132439-0.0372505,1.4860229-0.1687584,2.0182381-0.3988953l-1.5334816-0.8678665     c-1.1469498,0.4147644-2.2119598,0.6918755-3.2723389,0.0898781c-0.9537888-0.5505447-0.7972145-1.3129196,0.091507-1.8957596     l-0.3947678-0.2235298l0.4940033-0.2914886l0.4023705,0.2279205c0.6074257-0.3090248,1.3402519-0.5150108,2.1948395-0.6114616     l0.2272186,0.7078819c-0.5861664,0.0591927-1.1075554,0.1906929-1.5604439,0.3923225l1.4841232,0.8437691l0.0226021-0.0175362     c1.1583443-0.4228134,2.2807961-0.6959572,3.3479919-0.0898628c0.9807625,0.5659866,0.7897797,1.3310432-0.1404152,1.9373703     L50.4731026,52.6640015z M47.6414337,51.0553856L49.0611,51.8618698     c0.3866272-0.2782249,0.5324287-0.6231918,0.1237984-0.8591156C48.706089,50.737606,48.1980858,50.878643,47.6414337,51.0553856      M45.162323,50.8997765c0.200531-0.0022049,0.495285-0.063549,0.8767624-0.1797066l-1.3626595-0.7736473     C43.9487686,50.4603081,44.5635071,50.906147,45.162323,50.8997765"/></g></svg>