<svg xmlns="http://www.w3.org/2000/svg" width="32" height="32"><g color="#69e5aa"><path style="line-height:normal;text-indent:0;text-align:start;text-decoration-line:none;text-decoration-style:solid;text-decoration-color:#69e5aa;text-transform:none;block-progression:tb;isolation:auto;mix-blend-mode:normal" fill="#69e5aa" fill-rule="evenodd" d="M339.5 1505.361v1h23v-1h-23z" font-family="sans-serif" font-weight="400" overflow="visible" transform="translate(-336 -1499.362)"/><path style="isolation:auto;mix-blend-mode:normal" fill="#f05542" d="M342 1503.862a.5.5 0 0 1-.5.5.5.5 0 0 1-.5-.5.5.5 0 0 1 .5-.5.5.5 0 0 1 .5.5zm2 0a.5.5 0 0 1-.5.5.5.5 0 0 1-.5-.5.5.5 0 0 1 .5-.5.5.5 0 0 1 .5.5zm2 0a.5.5 0 0 1-.5.5.5.5 0 0 1-.5-.5.5.5 0 0 1 .5-.5.5.5 0 0 1 .5.5z" overflow="visible" transform="translate(-336 -1499.362)"/><path style="line-height:normal;text-indent:0;text-align:start;text-decoration-line:none;text-decoration-style:solid;text-decoration-color:#69e5aa;text-transform:none;block-progression:tb;isolation:auto;mix-blend-mode:normal" fill="#69e5aa" d="M339.5 1501.361a.5.5 0 0 0-.5.5v23a.5.5 0 0 0 .5.5h21.059a.5.5 0 1 0 0-1H340v-22h22v5.012a.5.5 0 1 0 1 0v-5.512a.5.5 0 0 0-.5-.5h-23zm22.992 7.393a.5.5 0 0 0-.492.508V1509.926a.5.5 0 1 0 1 0V1509.262a.5.5 0 0 0-.508-.508zm0 2.508a.5.5 0 0 0-.492.508v10.912a.5.5 0 1 0 1 0v-10.912a.5.5 0 0 0-.508-.508z" font-family="sans-serif" font-weight="400" overflow="visible" transform="translate(-336 -1499.362)"/><path style="line-height:normal;text-indent:0;text-align:start;text-decoration-line:none;text-decoration-style:solid;text-decoration-color:#69e5aa;text-transform:none;block-progression:tb;isolation:auto;mix-blend-mode:normal" fill="#f05542" d="M351.5 1513.361a.5.5 0 0 0-.5.5v9a.5.5 0 0 0 .5.5h2a.5.5 0 0 0 .5-.5v-9a.5.5 0 0 0-.5-.5h-2zm.5 1h1v8h-1v-8zm3.5 1a.5.5 0 0 0-.5.5v7a.5.5 0 0 0 .5.5h2a.5.5 0 0 0 .5-.5v-7a.5.5 0 0 0-.5-.5h-2zm.5 1h1v6h-1v-6zm-8.5 4a.5.5 0 0 0-.5.5v2a.5.5 0 0 0 .5.5h2a.5.5 0 0 0 .5-.5v-2a.5.5 0 0 0-.5-.5h-2zm.5 1h1v1h-1v-1zm-4.5-4a.5.5 0 0 0-.5.5v5a.5.5 0 0 0 .5.5h2a.5.5 0 0 0 .5-.5v-5a.5.5 0 0 0-.5-.5h-2zm.5 1h1v4h-1v-4z" font-family="sans-serif" font-weight="400" overflow="visible" transform="translate(-336 -1499.362)"/><path style="line-height:normal;text-indent:0;text-align:start;text-decoration-line:none;text-decoration-style:solid;text-decoration-color:#69e5aa;text-transform:none;block-progression:tb;isolation:auto;mix-blend-mode:normal" fill="#f05542" fill-rule="evenodd" d="M358.4 1520.133c-.059 0-.119.02-.18.053-.12.063-.24.17-.33.262a.016.016 0 0 0-.001 0 .016.016 0 0 0-.002 0v.016a1.017 1.017 0 0 0-.096.105c-.023.031-.034.06-.033.088a.156.156 0 0 0 .039.088c.024.03.059.066.103.11l1.496 1.494a.016.016 0 0 0 .002 0 .016.016 0 0 0 .002 0 .016.016 0 0 0 .002 0 .016.016 0 0 0 .002 0 .016.016 0 0 0 .002 0 .016.016 0 0 0 .002 0 .016.016 0 0 0 .002 0 .016.016 0 0 0 .002 0 .016.016 0 0 0 .002 0 .016.016 0 0 0 .002 0 .016.016 0 0 0 .002 0 .016.016 0 0 0 .002 0 .016.016 0 0 0 .002 0 .016.016 0 0 0 .002 0 .016.016 0 0 0-.002 0 .016.016 0 0 0-.002 0 .016.016 0 0 0-.002 0l-1.494-1.494a1.124 1.124 0 0 1-.101-.106c-.022-.028-.03-.049-.031-.068-.001-.02.007-.042.027-.07a.929.929 0 0 1 .096-.105.016.016 0 0 0 .002 0 .016.016 0 0 0 .002 0v-.014a1.37 1.37 0 0 1 .316-.254.367.367 0 0 1 .166-.047c.052 0 .099.016.14.059l1.528 1.527a.016.016 0 0 0 .002 0 .016.016 0 0 0 .002 0 .016.016 0 0 0 .002 0 .016.016 0 0 0 .002 0 .016.016 0 0 0 .002 0 .016.016 0 0 0 .002 0 .016.016 0 0 0 .002 0 .016.016 0 0 0 .002 0 .016.016 0 0 0 .002 0 .016.016 0 0 0 .002 0 .016.016 0 0 0 .002 0 .016.016 0 0 0 .002 0 .016.016 0 0 0 .002 0 .016.016 0 0 0 .002 0 .016.016 0 0 0-.002 0 .016.016 0 0 0-.002 0 .016.016 0 0 0-.002 0l-1.525-1.525a.223.223 0 0 0-.165-.07z" font-family="sans-serif" font-weight="400" overflow="visible" transform="translate(-336 -1499.362)"/><path style="line-height:normal;text-indent:0;text-align:start;text-decoration-line:none;text-decoration-style:solid;text-decoration-color:#69e5aa;text-transform:none;block-progression:tb;isolation:auto;mix-blend-mode:normal" fill="#f05542" fill-rule="evenodd" d="M360.756 1521.201c-.485 0-.971.187-1.334.56a.5.5 0 0 0-.14.346l.14-.341a1.866 1.866 0 0 0 .037 2.625l5.324 5.324c.408.419.928.61 1.41.584a1.9 1.9 0 0 0 1.237-.567c.321-.32.542-.754.568-1.236.026-.48-.168-1-.584-1.408l-5.328-5.328a1.855 1.855 0 0 0-1.33-.559zm0 .994c.223 0 .444.088.615.264a.5.5 0 0 0 .006.01l5.332 5.332a.5.5 0 0 0 .006 0c.24.233.294.437.283.64a.924.924 0 0 1-.275.585.92.92 0 0 1-.582.275c-.204.011-.408-.046-.64-.285a.5.5 0 0 0-.007 0l-5.332-5.332a.5.5 0 0 0-.006-.01.851.851 0 0 1-.015-1.213.5.5 0 0 0 .004 0 .859.859 0 0 1 .611-.262z" font-family="sans-serif" font-weight="400" overflow="visible" transform="translate(-336 -1499.362)"/><path style="line-height:normal;text-indent:0;text-align:start;text-decoration-line:none;text-decoration-style:solid;text-decoration-color:#69e5aa;text-transform:none;block-progression:tb;isolation:auto;mix-blend-mode:normal" fill="#69e5aa" d="M349.028 1511.446c-2.675 2.675-2.712 7-.07 9.641 2.641 2.642 6.965 2.605 9.64-.07 2.676-2.675 2.714-7 .072-9.643-2.642-2.641-6.967-2.603-9.642.072zm.707.707c2.3-2.3 5.975-2.325 8.228-.072 2.254 2.254 2.228 5.93-.072 8.229-2.299 2.299-5.973 2.324-8.227.07-2.253-2.254-2.228-5.928.07-8.228z" font-family="sans-serif" font-weight="400" overflow="visible" transform="translate(-336 -1499.362)"/></g></svg>