<svg xmlns="http://www.w3.org/2000/svg" enable-background="new 0 0 24 24" viewBox="0 0 24 24"><path d="M22.5 22.418c0 0-2.591-17.613-2.612-17.73-.018-.116-.113-.192-.21-.192-.097 0-1.919-.136-1.919-.136s-1.269-1.274-1.432-1.411c-.045-.037-.075-.057-.12-.074l-.91 21.104h.023L22.5 22.418zM15.128 3.065c-.421-1.233-1.17-2.37-2.496-2.37h-.114C12.134.209 11.67 0 11.268 0c-3.091 0-4.567 3.877-5.03 5.846C5.05 6.211 4.186 6.482 4.089 6.52 3.417 6.733 3.398 6.752 3.321 7.39 3.246 7.852 1.5 21.453 1.5 21.453L14.994 24l.922-21.166c-.02 0-.06.021-.078.021C15.821 2.855 15.551 2.93 15.128 3.065zM12.403 3.779v.135c-.75.232-1.575.484-2.382.736.464-1.777 1.326-2.645 2.075-2.971C12.287 2.18 12.403 2.855 12.403 3.779zM11.174.84V.83c.135 0 .27.038.403.135C10.598 1.43 9.523 2.604 9.081 4.957 8.428 5.17 7.794 5.362 7.201 5.535 7.718 3.75 8.966.84 11.174.84zM11.731 11.295l-.02.01c0 0-.806-.424-1.765-.424-1.44 0-1.497.906-1.497 1.141 0 1.232 3.224 1.715 3.224 4.629 0 2.295-1.433 3.76-3.389 3.76-2.342 0-3.522-1.465-3.522-1.465l.643-2.086c0 0 1.239 1.066 2.269 1.066.672 0 .97-.545.97-.932 0-1.619-2.641-1.694-2.641-4.359-.034-2.237 1.563-4.416 4.803-4.416 1.251 0 1.866.361 1.866.361L11.731 11.295zM13.209 3.666V3.414c0-.751-.096-1.369-.269-1.869.69.074 1.135.867 1.421 1.755C14.013 3.414 13.629 3.531 13.209 3.666z" fill="#69e5aa"/></svg>