<svg xmlns="http://www.w3.org/2000/svg" xmlns:xlink="http://www.w3.org/1999/xlink" version="1.1" id="Capa_1" x="0px" y="0px" width="124.826px" height="124.826px" viewBox="0 0 124.826 124.826" style="enable-background:new 0 0 124.826 124.826;" xml:space="preserve">
<g>
	<g>
		<circle cx="69.832" cy="64.124" r="7.154" fill="#69e5aa"/>
		<path d="M70.043,72.629c-0.118-0.082-0.244-0.142-0.369-0.201c-0.442-0.402-0.925-0.756-1.434-1.048    c-0.007-0.003-0.011-0.005-0.017-0.008l-2.17,1.255l-1.205-2.224c-0.82-0.037-1.662,0.056-2.474,0.271    c-0.131-0.007-0.35-0.216-0.434-0.307c-1.678-1.822-2.959-7.916-1.816-16.993c0.173-1.363-0.676-2.617-1.949-3.002V34.754h6.762    c1.231,0,2.23-0.998,2.23-2.23V2.229C67.169,0.998,66.17,0,64.938,0H50.071c-1.231,0-2.23,0.998-2.23,2.229v30.295    c0,1.232,0.999,2.23,2.23,2.23h7.097v15.502c-1.294,0.094-2.384,1.087-2.553,2.422c-1.246,9.875-0.033,17.894,3.241,21.45    c0.039,0.044,0.08,0.084,0.123,0.127c-0.075,0.179-0.14,0.365-0.197,0.556L53.34,89.966c-0.101,0.343-0.156,0.685-0.193,1.022    c-0.154,0.375-0.244,0.783-0.25,1.215l-0.289,24.518c-0.02,1.812,1.433,3.299,3.245,3.32c0.014,0,0.026,0,0.04,0    c1.794,0,3.261-1.445,3.281-3.245l0.22-18.522c0.159,0.029,0.322,0.058,0.484,0.078l-0.174,23.168    c-0.014,1.812,1.443,3.293,3.258,3.307c0.01,0,0.018,0,0.023,0c1.804,0,3.271-1.453,3.285-3.258L66.46,95.93    c0.408-0.533,0.729-1.146,0.934-1.844l2.14-7.292c-0.034,3.171-0.507,7.005-1.56,11.375c-0.36,1.491,0.557,2.991,2.049,3.353    c0.219,0.052,0.438,0.078,0.652,0.078c1.254,0,2.393-0.854,2.699-2.127C76.511,86.477,75.235,76.189,70.043,72.629z     M49.712,29.309V5.445h15.585v23.864H49.712z M55.944,31.651c0-0.861,0.699-1.561,1.561-1.561c0.863,0,1.562,0.699,1.562,1.561    c0,0.863-0.698,1.562-1.562,1.562C56.644,33.213,55.944,32.514,55.944,31.651z M65.995,72.885l-0.169,1.229    c-0.088,0.295-0.134,0.596-0.123,0.896l-1.296,9.43l-2.32,1.779l-0.032-0.01l-0.99-2.751l4.899-10.581L65.995,72.885z" fill="#69e5aa"/>
	</g>
</g>
<g>
</g>
<g>
</g>
<g>
</g>
<g>
</g>
<g>
</g>
<g>
</g>
<g>
</g>
<g>
</g>
<g>
</g>
<g>
</g>
<g>
</g>
<g>
</g>
<g>
</g>
<g>
</g>
<g>
</g>
</svg>