<svg xmlns="http://www.w3.org/2000/svg" viewBox="0 0 512 512"><path fill-rule="evenodd" d="M73.566 73.694h364.868c5.508 0 10 4.492 10 10v217.075H63.566V83.694c0-5.508 4.493-10 10-10zm197.219 63.878-3.79-23.681h-21.99l-3.791 23.681a59.158 59.158 0 0 0-15.525 6.437l-19.431-14.069-15.549 15.549 14.07 19.432a59.163 59.163 0 0 0-6.436 15.524l-23.683 3.791v21.99l23.682 3.791a59.214 59.214 0 0 0 6.437 15.524l-14.07 19.432 15.549 15.549 19.432-14.069a59.168 59.168 0 0 0 15.524 6.438l3.791 23.682h21.99l3.791-23.683a59.18 59.18 0 0 0 15.524-6.437l19.432 14.069 15.549-15.549-14.069-19.432a59.118 59.118 0 0 0 6.437-15.524l23.681-3.79v-21.99l-23.683-3.791a59.132 59.132 0 0 0-6.437-15.524l14.069-19.432-15.549-15.549-19.432 14.07a59.088 59.088 0 0 0-15.523-6.439zM23.567 438.306h464.865c3.506 0 6.519-1.646 8.413-4.595 1.895-2.949 2.139-6.374.681-9.562l-49.093-107.38H63.566l-49.093 107.38c-1.458 3.188-1.214 6.613.681 9.562 1.894 2.949 4.908 4.595 8.413 4.595zm176.381-30 15.46-51.406h81.184l15.461 51.406H199.948zM256 162.74c-17.944 0-32.491 14.547-32.491 32.491 0 17.945 14.547 32.491 32.491 32.491s32.491-14.547 32.491-32.491S273.944 162.74 256 162.74z" clip-rule="evenodd" fill="#69e5aa"/></svg>